<svg width="109" height="21" viewBox="0 0 109 21" fill="none" xmlns="http://www.w3.org/2000/svg">
<path d="M5.00588 3.50565C7.08226 3.50565 8.69027 3.95017 9.82994 4.8392C10.9852 5.72823 11.5628 7.06178 11.5628 8.83984C11.5628 10.6987 10.9852 12.0969 9.82994 13.0345C8.67466 13.9558 7.1369 14.4165 5.21664 14.4165H3.31981V20.2598H0.228668V3.50565H5.00588ZM4.98247 12.0161C6.09091 12.0161 6.92614 11.7817 7.48816 11.313C8.05019 10.828 8.3312 10.0037 8.3312 8.83984C8.3312 6.85164 7.21496 5.85755 4.98247 5.85755H3.31981V12.0161H4.98247Z" fill="#00240F"/>
<path d="M16.9681 7.43356V20.2598H13.9707V7.43356H16.9681ZM15.446 0.935547C16.008 0.935547 16.4608 1.12144 16.8042 1.49321C17.1633 1.84882 17.3428 2.29334 17.3428 2.82676C17.3428 3.36018 17.1633 3.80469 16.8042 4.16031C16.4608 4.51592 16.008 4.69372 15.446 4.69372C14.8996 4.69372 14.4468 4.51592 14.0878 4.16031C13.7443 3.80469 13.5726 3.36018 13.5726 2.82676C13.5726 2.29334 13.7443 1.84882 14.0878 1.49321C14.4468 1.12144 14.8996 0.935547 15.446 0.935547Z" fill="#00240F"/>
<path d="M28.6355 7.43356V9.66422L22.6405 17.8352H28.7526L28.4481 20.2598H19.1981V18.0292L25.2165 9.85819H19.7133V7.43356H28.6355Z" fill="#00240F"/>
<path d="M39.1551 7.43356V9.66422L33.1602 17.8352H39.2722L38.9678 20.2598H29.7178V18.0292L35.7362 9.85819H30.233V7.43356H39.1551Z" fill="#00240F"/>
<path d="M50.4324 16.8654C50.4324 17.3665 50.5027 17.7382 50.6432 17.9807C50.7993 18.207 51.0413 18.3848 51.3691 18.5141L50.7369 20.5751C50.0343 20.5104 49.4567 20.3326 49.004 20.0416C48.5668 19.7507 48.2312 19.3062 47.997 18.7081C47.5755 19.3547 47.0447 19.8396 46.4046 20.1629C45.7801 20.47 45.0776 20.6235 44.297 20.6235C43.0637 20.6235 42.0879 20.2598 41.3698 19.5325C40.6516 18.8051 40.2926 17.8514 40.2926 16.6714C40.2926 15.2813 40.7765 14.2225 41.7445 13.4951C42.728 12.7516 44.1253 12.3798 45.9362 12.3798H47.4818V11.6524C47.4818 10.828 47.2945 10.2542 46.9198 9.93092C46.5607 9.59148 45.9753 9.42175 45.1634 9.42175C44.258 9.42175 43.1651 9.64805 41.885 10.1006L41.1824 7.99122C42.728 7.37698 44.2267 7.06986 45.6786 7.06986C48.8478 7.06986 50.4324 8.5408 50.4324 11.4827V16.8654ZM45.0932 18.3686C46.108 18.3686 46.9042 17.8433 47.4818 16.7926V14.1983H46.2407C44.3048 14.1983 43.3369 14.9418 43.3369 16.4289C43.3369 17.0432 43.4852 17.52 43.7818 17.8595C44.0784 18.1989 44.5156 18.3686 45.0932 18.3686Z" fill="#00240F"/>
<path d="M70.4054 3.50565L70.0775 6.05152H65.8623V20.2598H62.7478V6.05152H58.3921V3.50565H70.4054Z" fill="#00240F"/>
<path d="M75.3295 7.43356V20.2598H72.332V7.43356H75.3295ZM73.8073 0.935547C74.3694 0.935547 74.8221 1.12144 75.1656 1.49321C75.5246 1.84882 75.7042 2.29334 75.7042 2.82676C75.7042 3.36018 75.5246 3.80469 75.1656 4.16031C74.8221 4.51592 74.3694 4.69372 73.8073 4.69372C73.2609 4.69372 72.8082 4.51592 72.4491 4.16031C72.1057 3.80469 71.9339 3.36018 71.9339 2.82676C71.9339 2.29334 72.1057 1.84882 72.4491 1.49321C72.8082 1.12144 73.2609 0.935547 73.8073 0.935547Z" fill="#00240F"/>
<path d="M92.0785 7.06986C93.0776 7.06986 93.8738 7.42547 94.4671 8.1367C95.0603 8.83176 95.357 9.77736 95.357 10.9735V20.2598H92.3595V11.4584C92.3595 10.0845 91.9068 9.39751 91.0013 9.39751C90.5173 9.39751 90.0958 9.55915 89.7367 9.88243C89.3932 10.1896 89.0342 10.6745 88.6595 11.3372V20.2598H85.662V11.4584C85.662 10.0845 85.2093 9.39751 84.3038 9.39751C83.8042 9.39751 83.3749 9.55915 83.0158 9.88243C82.6724 10.1896 82.3133 10.6745 81.9386 11.3372V20.2598H78.9411V7.43356H81.5405L81.7747 9.10655C82.7114 7.74876 83.9057 7.06986 85.3576 7.06986C86.0757 7.06986 86.6924 7.26383 87.2076 7.65177C87.7384 8.02355 88.1209 8.54889 88.3551 9.22778C88.8546 8.53272 89.4011 7.9993 89.9943 7.62753C90.6032 7.25575 91.2979 7.06986 92.0785 7.06986Z" fill="#00240F"/>
<path d="M109 13.5436C109 13.7053 108.977 14.1255 108.93 14.8044H101.155C101.249 16.0491 101.561 16.9381 102.092 17.4715C102.623 18.0049 103.325 18.2717 104.2 18.2717C104.746 18.2717 105.261 18.1827 105.745 18.0049C106.229 17.811 106.744 17.52 107.291 17.1321L108.532 18.9021C107.158 20.0497 105.628 20.6235 103.942 20.6235C102.053 20.6235 100.593 20.0255 99.563 18.8293C98.5482 17.6332 98.0409 16.0006 98.0409 13.9316C98.0409 12.6223 98.2594 11.4504 98.6965 10.4159C99.1337 9.36518 99.766 8.54889 100.593 7.96697C101.421 7.3689 102.404 7.06986 103.544 7.06986C105.277 7.06986 106.62 7.64369 107.572 8.79135C108.524 9.92284 109 11.5069 109 13.5436ZM106.026 12.6465C106.026 10.3997 105.222 9.27628 103.614 9.27628C102.881 9.27628 102.303 9.55915 101.881 10.1249C101.475 10.6745 101.233 11.5635 101.155 12.792H106.026V12.6465Z" fill="#00240F"/>
</svg>
